<?xml version="1.0" encoding="utf-8"?>
<!-- Generator: Adobe Illustrator 23.1.0, SVG Export Plug-In . SVG Version: 6.00 Build 0)  -->
<svg version="1.1" id="Layer_1" xmlns="http://www.w3.org/2000/svg" xmlns:xlink="http://www.w3.org/1999/xlink" x="0px" y="0px"
	 viewBox="0 0 1366 768" style="enable-background:new 0 0 1366 768;" xml:space="preserve">
<style type="text/css">
	.st0{fill:#EF513A;}
	.st1{fill:#2875CA;}
	.st2{fill:#FFFFFF;}
	.st3{fill:#F2EBE9;}
	.st4{fill:#FEFEFE;}
	.st5{fill:#F59535;}
</style>
<g>
	<g>
		<path class="st0" d="M765.38,334.04c0,33.06,0,66.11,0,99.17c-0.19,0.13-0.14,0.33-0.16,0.51c-1.44,12.36-7.53,21.7-18.31,27.89
			c-5.11,2.94-10.66,4.37-16.63,4.36c-32.35-0.05-64.7-0.02-97.05-0.02c-0.65,0-1.29-0.02-1.93-0.12
			c-13.75-2.09-23.36-9.55-28.83-22.31c-1.23-2.87-2.18-5.89-2.19-9.03c-0.04-34.12-0.02-68.25-0.02-102.37
			c0-0.32-0.01-0.65,0.04-0.96c2.54-14.28,10.64-23.9,24.26-28.86c1.9-0.69,3.89-1.01,5.85-1.46c34.83,0,69.66,0,104.49,0
			c0.18,0.05,0.35,0.13,0.53,0.16c14.15,2.3,25.71,13.09,28.99,27.04C764.89,330,765.09,332.02,765.38,334.04z M647.99,354.35
			L647.99,354.35c-0.05-0.1-0.1-0.21-0.15-0.32l-0.01-0.01c-0.05-0.13-0.1-0.26-0.15-0.38c-0.5-0.73-0.77-1.58-1.14-2.38
			c-0.2-0.45-0.48-0.62-0.98-0.62c-2.47,0.04-4.94,0.02-7.41,0.04c-2.71,0.03-5.42,0.07-8.14,0.11c-0.39,0.01-0.73,0.08-0.93,0.48
			c-0.2,0.41-0.03,0.71,0.23,1.01c0.19,0.22,0.37,0.46,0.28,0.79c-1.71,0.36-2.69,1.39-3.05,3.11c-0.26,1.23,0.04,2.35,0.5,3.44
			c2.16,5.03,4.63,9.91,6.85,14.9c0.91,2.04,2.18,3.96,2.46,6.25c-0.83,0.01-1.66,0.03-2.49,0.03c-3.06,0-6.11,0.02-9.17-0.02
			c-0.72-0.01-0.95,0.22-0.89,0.92c0.05,0.61-0.01,1.23-0.02,1.85c-0.27,0.04-0.5,0.18-0.73,0.32c-1.56,0.98-1.92,2.56-1.96,4.19
			c-0.08,3.44-0.07,6.88-0.01,10.32c0.05,2.76,1.28,4.31,3.66,4.77c0.71,0.14,1.43,0.24,2.16,0.22c1.56-0.03,3.11-0.1,4.66-0.13
			c4.22-0.09,8.44-0.05,12.65-0.03c1.42,0.01,2.67,0.41,3.66,1.54c0.78,0.89,1.29,1.91,1.78,2.95c1.32,2.82,2.63,5.65,3.93,8.48
			c1.82,3.95,3.63,7.9,5.46,11.85c0.62,1.34,1.32,2.64,2.23,3.81c1.28,1.65,3.69,1.8,5.2,0.37c0.94-0.89,1.56-1.98,2.09-3.13
			c1.64-3.62,3.26-7.24,4.89-10.87c1.42-3.16,2.83-6.32,4.27-9.47c1-2.17,1.82-4.43,3.01-6.5c0.9-1.56,2.41-2.25,3.67-0.27
			c0.13,0.2,0.25,0.41,0.36,0.63c1.3,2.65,2.6,5.3,3.9,7.95c3.09,6.29,6.18,12.59,9.28,18.87c0.42,0.85,0.96,1.61,1.66,2.26
			c1.48,1.38,3.89,1.34,5.33-0.05c0.69-0.66,1.24-1.41,1.64-2.27c1.97-4.23,3.97-8.46,5.93-12.7c1.37-2.95,2.79-5.87,4.02-8.88
			c1.31-3.21,3.5-4.59,6.99-4.47c4.99,0.17,9.99,0.06,14.99,0.04c3.39-0.01,5.38-1.64,5.56-4.65c0.23-3.78,0.39-7.56,0.34-11.34
			c-0.02-1.4-0.37-2.77-1.62-3.5c-0.81-0.47-1.04-1.04-1.1-1.83c0.28-1.25,0.16-1.4-1.09-1.4c-3.29-0.01-6.58-0.02-9.87-0.03
			c-0.73-0.14-0.77-0.63-0.62-1.22c0.14-0.55,0.42-1.04,0.66-1.55c1.78-3.85,3.56-7.69,5.31-11.55c1.17-2.59,2.52-5.11,3.47-7.79
			c0.79-2.24,0.59-4.64-2.14-5.67c-0.31-0.12-0.49-0.31-0.56-0.63l0.01-0.05c0.05-0.08,0.09-0.17,0.14-0.25
			c-0.02-0.03-0.01-0.05,0.02-0.07c0.05-0.09,0.09-0.18,0.14-0.26c-0.05-0.38,0.66-1.06-0.39-1.07c-5.61-0.06-11.21-0.11-16.82-0.17
			c-0.34,0-0.54,0.09-0.69,0.4c-0.42,0.88-0.87,1.74-1.31,2.6c-0.07,0.13-0.13,0.25-0.2,0.38c-0.04,0.05-0.08,0.1-0.12,0.15
			c-0.34,0.04-0.59,0.21-0.78,0.5c-0.45,0.7-0.95,1.36-1.3,2.12c-1.95,4.24-3.91,8.47-5.86,12.71c-1.71,3.73-3.4,7.46-5.13,11.18
			c-0.51,1.09-0.92,2.23-1.72,3.17c-0.82,0.96-1.76,1.04-2.56,0.06c-0.44-0.54-0.77-1.16-1.15-1.74c-0.54-0.82-0.99-1.73-1.94-2.2
			c-0.5-0.96-1-1.93-1.51-2.89c-0.27-0.5-0.52-0.66-0.83,0c-0.22,0.48-0.51,0.92-0.77,1.38c-0.05,0.09-0.09,0.17-0.14,0.26
			l-0.02,0.06c-0.04,0.08-0.09,0.16-0.13,0.24c0.01,0.04,0,0.07-0.03,0.09c-0.04,0.07-0.08,0.14-0.11,0.22
			c0,0.03-0.01,0.06-0.04,0.07c-0.96,0.36-1.54-0.44-1.4-1.35c0.13-0.82,0.27-1.65,0.61-2.41c1.83-4.09,3.67-8.17,5.48-12.27
			c0.76-1.72,1.72-3.36,2.14-5.2c0.49-2.17-0.17-3.88-2.27-4.6c-0.24-0.08-0.45-0.17-0.51-0.45c0.04-0.5,0.34-0.89,0.53-1.33
			c0.23-0.54,0.24-0.85-0.5-0.85c-5.58,0.01-11.16,0.01-16.74,0c-0.38,0-0.56,0.13-0.72,0.47c-0.47,1.03-0.98,2.04-1.47,3.06
			c-0.04,0.12-0.09,0.24-0.13,0.36l0.01-0.01c-0.81,0.25-1.12,0.97-1.46,1.63c-1.18,2.3-2.11,4.7-3.14,7.06
			c-2.13,4.87-4.24,9.75-6.38,14.61c-0.79,1.79-1.41,3.67-2.52,5.3c-0.82,1.21-2.12,1.24-3.01,0.09c-0.5-0.64-0.82-1.38-1.16-2.12
			c-1.58-3.47-3.16-6.94-4.73-10.41c-1.49-3.28-2.95-6.56-4.46-9.83c-0.84-1.83-1.54-3.73-2.68-5.4c-0.24-0.35-0.45-0.74-0.95-0.79
			l0.01,0.01C648.14,354.56,648.14,354.42,647.99,354.35z"/>
		<path class="st1" d="M708.39,413.6c2.73-5.92,5.47-11.83,8.18-17.75c0.23-0.5,0.48-0.64,1.01-0.64
			c7.39,0.02,14.78,0.01,22.16,0.01c1.55,0,1.87-0.28,1.83-1.89c-0.04-1.48-0.04-2.95,0.03-4.43c0.11-2.44,0.2-4.88,0.29-7.33
			c0-0.05-0.03-0.1-0.04-0.15c-0.04,0.02-0.11,0.04-0.11,0.06c0,0.05,0.03,0.1,0.04,0.15c0.06,0.8,0.29,1.36,1.1,1.84
			c1.25,0.73,1.6,2.11,1.62,3.5c0.05,3.78-0.11,7.57-0.34,11.34c-0.18,3.01-2.17,4.64-5.56,4.65c-5,0.02-10,0.13-14.99-0.04
			c-3.49-0.12-5.69,1.26-6.99,4.47c-1.22,3.01-2.65,5.93-4.02,8.88c-1.96,4.24-3.96,8.46-5.93,12.7c-0.4,0.86-0.95,1.61-1.64,2.27
			c-1.45,1.4-3.85,1.43-5.33,0.05c-0.7-0.65-1.24-1.41-1.66-2.26c-3.1-6.29-6.19-12.58-9.28-18.87c-1.3-2.65-2.6-5.3-3.9-7.95
			c-0.11-0.22-0.23-0.42-0.36-0.63c-1.26-1.98-2.76-1.29-3.67,0.27c-1.2,2.07-2.02,4.33-3.01,6.5c-1.44,3.15-2.85,6.31-4.27,9.47
			c-1.63,3.62-3.25,7.25-4.89,10.87c-0.52,1.15-1.15,2.24-2.09,3.13c-1.51,1.43-3.92,1.28-5.2-0.37c-0.91-1.17-1.61-2.47-2.23-3.81
			c-1.83-3.95-3.64-7.9-5.46-11.85c-1.3-2.83-2.61-5.66-3.93-8.48c-0.49-1.04-1-2.06-1.78-2.95c-0.99-1.13-2.25-1.53-3.66-1.54
			c-4.22-0.02-8.44-0.06-12.65,0.03c-1.55,0.03-3.11,0.1-4.66,0.13c-0.73,0.02-1.45-0.08-2.16-0.22c-2.38-0.46-3.61-2-3.66-4.77
			c-0.06-3.44-0.07-6.88,0.01-10.32c0.04-1.63,0.4-3.22,1.96-4.19c0.23-0.14,0.45-0.29,0.73-0.32c0.01,3.71,0.04,7.41,0.01,11.12
			c-0.01,0.81,0.26,0.99,1.01,0.96c7.87-0.24,15.74-0.11,23.61-0.25c0.73-0.01,1.07,0.21,1.38,0.87
			c4.45,9.68,8.93,19.34,13.39,29.01c0.26,0.55,0.72,0.58,1.18,0.66c0.5,0.09,0.53-0.37,0.66-0.66c3.25-7.17,6.5-14.34,9.73-21.53
			c3.99-8.89,7.96-17.8,11.95-26.69c3.05-6.8,6.11-13.59,9.18-20.38c0.58-1.29,1.19-2.57,1.79-3.86c0.05,0.28,0.26,0.37,0.51,0.45
			c2.1,0.72,2.76,2.43,2.27,4.6c-0.42,1.84-1.38,3.49-2.14,5.2c-1.81,4.1-3.65,8.18-5.48,12.27c-0.34,0.77-0.48,1.59-0.61,2.41
			c-0.14,0.9,0.44,1.71,1.4,1.35c-1.54,2.77-2.89,5.65-4.43,8.43c-1.02,1.85-1.98,3.74-2.93,5.64c-0.21,0.42-0.06,0.77,0.12,1.14
			c2.35,4.8,4.69,9.59,7.03,14.4c2.62,5.38,5.24,10.77,7.87,16.15"/>
		<path class="st1" d="M730.83,380.19c-2.3,0-4.6,0-7.02,0c0.41-0.91,0.78-1.75,1.17-2.59c3.88-8.4,7.75-16.79,11.63-25.19
			c0.1-0.22,0.22-0.43,0.33-0.64c0.07,0.32,0.25,0.51,0.56,0.63c2.73,1.04,2.93,3.43,2.14,5.67c-0.95,2.68-2.29,5.2-3.47,7.79
			c-1.75,3.86-3.53,7.71-5.31,11.55c-0.24,0.51-0.52,1-0.66,1.55C730.06,379.57,730.1,380.06,730.83,380.19z"/>
		<path class="st1" d="M629.68,352.65c4.57,9.09,8.6,18.43,13.01,27.71c-2.18,0-4.21,0-6.25,0c-0.28-2.3-1.55-4.21-2.46-6.25
			c-2.23-4.99-4.69-9.88-6.85-14.9c-0.47-1.09-0.76-2.21-0.5-3.44C626.99,354.04,627.97,353.01,629.68,352.65z"/>
		<path class="st1" d="M678.73,354.1c-0.86,2.53-2.05,4.93-3.1,7.38c-3.73,8.64-7.49,17.26-11.24,25.88
			c-0.17,0.39-0.35,0.77-0.59,1.28c-0.7-1.53-1.36-2.94-1.99-4.38c-1.56-3.57-3.17-7.13-4.8-10.67c-2.92-6.33-5.78-12.69-8.66-19.03
			c-0.04-0.1-0.07-0.2-0.1-0.3c0.5,0.04,0.71,0.43,0.95,0.79c1.14,1.68,1.84,3.58,2.68,5.4c1.51,3.27,2.97,6.55,4.46,9.83
			c1.57,3.47,3.15,6.94,4.73,10.41c0.33,0.73,0.66,1.47,1.16,2.12c0.89,1.15,2.19,1.12,3.01-0.09c1.11-1.64,1.73-3.51,2.52-5.3
			c2.14-4.87,4.26-9.74,6.38-14.61c1.03-2.36,1.96-4.77,3.14-7.06C677.62,355.07,677.93,354.35,678.73,354.1z"/>
		<path class="st1" d="M717.73,353.44c-0.79,2.4-1.96,4.64-3,6.93c-4.03,8.8-8.07,17.59-12.11,26.38c-0.31,0.67-0.66,1.32-1.05,2.11
			c-0.64-1.35-1.22-2.57-1.79-3.8c-0.88-1.91-1.74-3.84-2.48-5.81c0.95,0.46,1.4,1.37,1.94,2.2c0.38,0.58,0.71,1.21,1.15,1.74
			c0.8,0.98,1.74,0.9,2.56-0.06c0.8-0.94,1.21-2.08,1.72-3.17c1.73-3.72,3.42-7.46,5.13-11.18c1.95-4.24,3.91-8.47,5.86-12.71
			c0.35-0.76,0.85-1.42,1.3-2.12C717.14,353.65,717.39,353.48,717.73,353.44z"/>
		<path class="st1" d="M718.05,352.91c-0.01,0.16,0.08,0.37-0.2,0.38C717.92,353.17,717.99,353.04,718.05,352.91z"/>
		<path class="st1" d="M647.92,353.6c-0.05-0.13-0.1-0.26-0.15-0.38C647.82,353.34,647.87,353.47,647.92,353.6z"/>
		<path class="st1" d="M648.09,353.94c-0.05-0.11-0.11-0.22-0.16-0.33C647.98,353.72,648.04,353.83,648.09,353.94z"/>
		<path class="st1" d="M678.86,353.76c0.01,0.14,0.05,0.29-0.13,0.36C678.77,353.99,678.81,353.87,678.86,353.76z"/>
		<path class="st1" d="M648.25,354.27c-0.05-0.11-0.11-0.22-0.16-0.34C648.23,354,648.23,354.14,648.25,354.27z"/>
		<path class="st1" d="M737.12,351.41c0.05-0.09,0.09-0.18,0.14-0.26C737.21,351.23,737.17,351.32,737.12,351.41z"/>
		<path class="st1" d="M736.96,351.73c0.05-0.08,0.09-0.17,0.14-0.25C737.05,351.56,737,351.64,736.96,351.73z"/>
		<path class="st1" d="M694.18,377.74c-0.05,0.09-0.09,0.18-0.14,0.26C694.09,377.92,694.14,377.83,694.18,377.74z"/>
		<path class="st1" d="M694.02,378.07c-0.04,0.08-0.09,0.16-0.13,0.25C693.93,378.23,693.98,378.15,694.02,378.07z"/>
		<path class="st1" d="M693.85,378.4c-0.04,0.07-0.08,0.15-0.11,0.22C693.78,378.54,693.82,378.47,693.85,378.4z"/>
	</g>
	<rect x="617.75" y="331.91" class="st0" width="130.14" height="103"/>
</g>
<g>
	<path class="st0" d="M679.95,445.96c-20.68,0-41.35,0-62.03,0.01c-0.46,0-0.52-0.13-0.52-0.54c0.01-41.34,0.01-82.67-0.01-124.01
		c0-0.52,0.14-0.58,0.61-0.58c41.32,0.01,82.63,0.01,123.95,0c0.52,0,0.58,0.14,0.58,0.61c-0.01,41.32-0.01,82.63,0,123.95
		c0,0.52-0.14,0.58-0.61,0.58C721.27,445.96,700.61,445.96,679.95,445.96z M700.43,334.3c-0.12,0.02-0.21,0.06-0.22,0.2
		c-0.01,0.16,0.06,0.25,0.22,0.26c0.03,0.23,0.2,0.32,0.44,0.45c-0.06-0.31-0.21-0.42-0.44-0.45
		C700.43,334.61,700.43,334.46,700.43,334.3c0.07-0.01,0.16-0.01,0.17-0.11c0-0.02-0.04-0.07-0.06-0.06
		C700.44,334.15,700.44,334.23,700.43,334.3z M670.04,355.84l-0.03,0.02c-0.09,0.23-0.44,0.28-0.42,0.59
		c-0.01,0.11-0.01,0.23-0.04,0.34c-1.67,7.52-3.34,15.04-5.01,22.56c-2.02,9.1-4.05,18.2-6.07,27.3
		c-1.68,7.58-3.35,15.16-5.03,22.74c-0.56,2.53-1.14,5.07-1.74,7.73c0.47-0.34,0.83-0.61,1.2-0.87
		c8.83-6.36,17.67-12.72,26.51-19.07c0.35-0.25,0.53-0.48,0.37-0.89c0.11-0.18,0.22-0.07,0.34-0.01c0.02,0.42,0.35,0.4,0.63,0.41
		c5.37,0.1,10.73,0.2,16.1,0.31c0.48,0.01,0.49-0.11,0.31-0.5c-1.25-2.79-2.49-5.6-3.73-8.4c-6.43-14.47-12.87-28.94-19.29-43.41
		c-1.22-2.75-2.41-5.5-3.62-8.26c0.02-0.17-0.09-0.41,0.22-0.45c0.07,0.14,0.15,0.27,0.21,0.41c2.59,5.83,5.17,11.66,7.76,17.48
		c3.73,8.4,7.48,16.79,11.21,25.19c2.29,5.16,4.58,10.32,6.88,15.48c0.34,0.76,0.63,1.54,1.12,2.34c0.07-0.35,0.13-0.59,0.16-0.84
		c0.68-4.64,1.35-9.27,2.02-13.91c0.54-3.7,1.08-7.4,1.62-11.1c0.53-3.66,1.06-7.33,1.6-10.99c0.42-2.82,0.85-5.65,1.26-8.47
		c0.53-3.61,1.03-7.22,1.58-10.82c0.08-0.55-0.09-0.66-0.57-0.71c-1.34-0.15-2.68-0.34-4.02-0.52c-2.58-0.36-5.16-0.73-7.73-1.09
		c-3.04-0.42-6.08-0.82-9.12-1.23c-2.69-0.37-5.39-0.73-8.08-1.11c-1.51-0.21-3.01-0.44-4.52-0.67c0.03-0.33,0.31-0.2,0.49-0.26
		c0.96,0.11,1.92,0.2,2.87,0.33c1.99,0.27,3.97,0.56,5.96,0.83c2.44,0.33,4.89,0.65,7.34,0.98c2.08,0.28,4.16,0.59,6.24,0.87
		c2.58,0.35,5.16,0.7,7.73,1.05c0.97,0.13,1.95,0.25,2.92,0.38c0.33,0.04,0.47-0.03,0.35-0.41c-0.12-0.36-0.18-0.75-0.27-1.12
		c-0.5-2.12-1-4.23-1.5-6.35c-0.5-2.09-1.03-4.18-1.48-6.28c-0.11-0.52-0.27-0.58-0.7-0.44c-2.49,0.8-4.97,1.59-7.46,2.39
		c-2.56,0.82-5.13,1.64-7.69,2.46c-2.36,0.75-4.73,1.5-7.09,2.25c-1.78,0.56-3.55,1.13-5.33,1.69c-1.01,0.32-2.01,0.64-3.01,0.97
		c-0.03,0.01-0.24,0-0.1,0.15c0.03,0.04,0.11,0.04,0.16,0.05c0.05,0.13,0.2,0.33-0.12,0.26c-0.23-0.05-0.46-0.02-0.68-0.06
		C670.22,355.08,669.96,355.28,670.04,355.84z M679.45,340.11c-0.43,0.02-0.87-0.11-1.28,0.09c-0.31,0.01-0.62,0.08-0.92,0.03
		c-0.57-0.09-0.77,0.19-0.93,0.68c-0.57,1.75-1.17,3.49-1.75,5.24c-0.02,0.21-0.16,0.4-0.09,0.62c-0.02,0.05-0.03,0.11-0.06,0.16
		c-1.17,2.13-2.34,4.26-3.5,6.39c-0.09,0.17-0.34,0.36-0.06,0.58c0.06,0.13,0.25,0.17,0.23,0.34l-0.02,0.01
		c-0.08,0.05-0.2,0.1-0.11,0.2c0.07,0.08,0.17,0.02,0.24-0.06c0.13-0.05,0.25-0.09,0.38-0.14c7.79-2.48,15.58-4.96,23.37-7.44
		c2.44-0.77,4.88-1.54,7.32-2.31c0.09-0.01,0.25,0,0.27-0.04c0.17-0.53,0.61-0.38,0.99-0.42c0.21-0.02,0.52,0.15,0.61-0.23
		c0.13-0.05,0.25-0.11,0.38-0.14c3.4-0.89,6.8-1.78,10.2-2.68c0.46-0.12,0.92-0.28,1.37-0.43c0.13-0.04,0.25-0.15,0.27-0.28
		c0.02-0.17-0.15-0.22-0.26-0.26c-0.34-0.13-0.69-0.25-1.04-0.35c-2.66-0.75-5.32-1.5-7.99-2.22c-2.13-0.58-4.23-1.25-6.39-1.72
		c-0.3-0.5-0.66-0.92-1.2-1.17c-0.99-1.03-1.98-2.05-2.95-3.09c-0.24-0.26-0.47-0.42-0.84-0.41c-2.36,0.02-4.71,0.01-7.07,0.02
		c-0.31,0.03-0.77-0.18-0.72,0.44c-0.31,0.15-0.61,0.31-0.93,0.46c-1.7,0.8-3.4,1.58-5.1,2.4c-0.14,0.07-0.5,0.04-0.35,0.4
		c0,0.08,0,0.15,0,0.23c-0.42-0.17-0.62,0.13-0.86,0.38c-1.29,1.35-2.6,2.69-3.89,4.03c-0.23,0.01-0.51-0.04-0.44,0.33
		c0.07,0.36,0.27,0.36,0.53,0.17c0.05-0.04,0.15-0.03,0.22-0.03c1.52,0,3.04,0,4.61,0c-0.3,0.21-0.63-0.02-0.87,0.2
		C680.37,340.09,679.91,340.1,679.45,340.11z M706.65,360.78c-2.68,18.38-5.33,36.6-7.99,54.83c0.64-1.94,1.17-3.91,1.7-5.88
		c3.71-13.72,7.42-27.43,11.17-41.14c0.28-1.03,0.17-1.72-0.54-2.52C709.52,364.39,708.15,362.62,706.65,360.78z"/>
	<path class="st2" d="M672.13,355.42c1.51,0.22,3.01,0.46,4.52,0.67c2.69,0.38,5.39,0.75,8.08,1.11c3.04,0.41,6.08,0.81,9.12,1.23
		c2.58,0.35,5.16,0.73,7.73,1.09c1.34,0.19,2.67,0.37,4.02,0.52c0.48,0.05,0.65,0.16,0.57,0.71c-0.55,3.6-1.05,7.21-1.58,10.82
		c-0.41,2.82-0.85,5.65-1.26,8.47c-0.54,3.66-1.07,7.33-1.6,10.99c-0.54,3.7-1.08,7.4-1.62,11.1c-0.68,4.64-1.35,9.27-2.02,13.91
		c-0.04,0.24-0.09,0.48-0.16,0.84c-0.49-0.8-0.78-1.58-1.12-2.34c-2.3-5.16-4.58-10.32-6.88-15.48c-3.74-8.4-7.48-16.79-11.21-25.19
		c-2.59-5.83-5.17-11.66-7.76-17.48c-0.06-0.14-0.14-0.27-0.21-0.41c-0.02-0.07-0.02-0.16-0.05-0.22c-0.31-0.51-0.02-0.54,0.38-0.46
		C671.41,355.38,671.77,355.44,672.13,355.42z"/>
	<path class="st2" d="M679.78,416.29c0.16,0.42-0.02,0.65-0.37,0.89c-8.84,6.35-17.67,12.71-26.51,19.07
		c-0.37,0.26-0.73,0.53-1.2,0.87c0.6-2.66,1.18-5.19,1.74-7.73c1.68-7.58,3.34-15.16,5.03-22.74c2.02-9.1,4.05-18.2,6.07-27.3
		c1.67-7.52,3.34-15.04,5.01-22.56c0.02-0.11,0.02-0.23,0.04-0.34c0.43-0.01,0.31,0.35,0.34,0.56c0.66,3.92,1.3,7.84,1.94,11.76
		c0.78,4.76,1.57,9.51,2.36,14.27c0.75,4.55,1.49,9.1,2.24,13.65c0.72,4.34,1.44,8.67,2.17,13.01c0.27,1.58,0.46,3.17,0.82,4.73
		c0,0.04,0.01,0.08,0.01,0.12c-0.02,0.13-0.01,0.25,0.08,0.36c0.02,0.15,0.04,0.31,0.07,0.46c0.02,0.11,0.04,0.21,0.07,0.32
		c0.01,0.08,0.01,0.17,0.02,0.25C679.68,416.06,679.7,416.18,679.78,416.29z"/>
	<path class="st2" d="M670.52,356.44c1.2,2.75,2.4,5.51,3.62,8.26c6.43,14.47,12.86,28.94,19.29,43.41c1.24,2.8,2.48,5.6,3.73,8.4
		c0.18,0.39,0.16,0.51-0.31,0.5c-5.37-0.11-10.73-0.21-16.1-0.31c-0.28-0.01-0.61,0.01-0.63-0.41c0.02-0.17,0-0.32-0.09-0.47
		c-0.01-0.12-0.02-0.23-0.03-0.35c0.02-0.13-0.01-0.24-0.09-0.35c-0.01-0.12-0.02-0.23-0.03-0.35c0.02-0.13,0.01-0.25-0.08-0.36
		c0.01-0.04,0.01-0.07-0.01-0.1c-0.01-0.15-0.01-0.31-0.03-0.46c-0.64-3.76-1.29-7.52-1.92-11.28c-0.8-4.77-1.59-9.54-2.39-14.32
		c-0.75-4.47-1.5-8.93-2.26-13.4c-0.75-4.47-1.51-8.93-2.26-13.4c-0.31-1.86-0.6-3.73-0.9-5.59c0,0,0.03-0.02,0.03-0.02
		c0.08,0.01,0.16,0.03,0.24,0.04l0,0C670.28,356.1,670.39,356.27,670.52,356.44z"/>
	<path class="st2" d="M671.56,354.97c-0.06-0.02-0.13-0.02-0.16-0.05c-0.14-0.15,0.07-0.14,0.1-0.15c1-0.33,2.01-0.65,3.01-0.97
		c1.78-0.56,3.55-1.13,5.33-1.69c2.36-0.75,4.73-1.5,7.09-2.25c2.57-0.82,5.13-1.64,7.69-2.46c2.49-0.8,4.98-1.59,7.46-2.39
		c0.43-0.14,0.59-0.08,0.7,0.44c0.45,2.1,0.98,4.19,1.48,6.28c0.5,2.12,1,4.23,1.5,6.35c0.09,0.37,0.15,0.76,0.27,1.12
		c0.12,0.37-0.02,0.45-0.35,0.41c-0.97-0.13-1.95-0.25-2.92-0.38c-2.58-0.35-5.16-0.69-7.73-1.05c-2.08-0.29-4.16-0.59-6.24-0.87
		c-2.44-0.33-4.89-0.65-7.34-0.98c-1.99-0.27-3.97-0.56-5.96-0.83c-0.95-0.13-1.91-0.22-2.87-0.33
		C672.28,355.01,671.92,354.99,671.56,354.97z"/>
	<path class="st2" d="M706.65,360.78c1.5,1.84,2.87,3.62,4.35,5.29c0.7,0.8,0.82,1.5,0.54,2.52c-3.75,13.7-7.46,27.42-11.17,41.14
		c-0.53,1.97-1.06,3.93-1.7,5.88C701.32,397.38,703.97,379.15,706.65,360.78z"/>
	<path class="st2" d="M702.28,344.5c-2.44,0.77-4.88,1.53-7.32,2.31c-7.79,2.48-15.58,4.96-23.37,7.44
		c-0.13,0.04-0.25,0.09-0.38,0.14c-0.07-0.02-0.14-0.04-0.13-0.13c0,0,0.02-0.01,0.02-0.01c0.45-0.29,0.91-0.57,1.36-0.87
		c6.49-4.35,12.97-8.69,19.45-13.05c0.4-0.27,0.72-0.3,1.16-0.1c1.58,0.71,3.18,1.38,4.77,2.06c1.47,0.63,2.94,1.26,4.41,1.88
		C702.52,344.27,702.55,344.35,702.28,344.5z"/>
	<path class="st2" d="M700.67,335.72c2.16,0.47,4.26,1.14,6.39,1.72c2.67,0.72,5.33,1.48,7.99,2.22c0.35,0.1,0.7,0.22,1.04,0.35
		c0.11,0.04,0.29,0.09,0.26,0.26c-0.02,0.14-0.13,0.24-0.27,0.28c-0.45,0.15-0.91,0.31-1.37,0.43c-3.4,0.9-6.8,1.78-10.2,2.68
		c-0.13,0.03-0.25,0.09-0.38,0.14c-0.3,0.04-0.61,0.07-0.91,0.11c-0.29,0.04-0.4-0.1-0.47-0.38c-0.42-1.78-1.03-3.5-1.51-5.26
		C701.02,337.44,700.57,336.64,700.67,335.72z"/>
	<path class="st2" d="M670.86,353.89c-0.28-0.22-0.03-0.41,0.06-0.58c1.16-2.13,2.33-4.26,3.5-6.39c0.03-0.05,0.04-0.11,0.06-0.16
		c0.15-0.15,0.33-0.26,0.53-0.34c4.93-1.94,9.86-3.89,14.78-5.83c0.71-0.28,1.42-0.55,2.13-0.82c-0.1,0.19-0.24,0.3-0.38,0.39
		c-3.01,2.01-6.03,4.02-9.05,6.02C678.62,348.75,674.74,351.32,670.86,353.89z"/>
	<path class="st2" d="M681.53,334.77c-0.15-0.36,0.22-0.33,0.35-0.4c1.69-0.81,3.4-1.6,5.1-2.4c0.31-0.15,0.62-0.31,0.93-0.46
		c0.38-0.17,0.63-0.03,0.89,0.27c2.5,2.83,5.01,5.64,7.5,8.47c0.33,0.38,0.73,0.71,0.99,1.17c-0.19,0.06-0.3-0.04-0.42-0.09
		c-3.75-1.61-7.5-3.23-11.25-4.84C684.26,335.91,682.89,335.34,681.53,334.77z"/>
	<path class="st0" d="M681.53,334.77c1.36,0.57,2.73,1.14,4.09,1.72c3.75,1.61,7.5,3.23,11.25,4.84c0.12,0.05,0.23,0.15,0.42,0.09
		c-0.26-0.46-0.66-0.79-0.99-1.17c-2.5-2.83-5.01-5.64-7.5-8.47c-0.26-0.3-0.52-0.44-0.89-0.27c-0.05-0.62,0.4-0.42,0.72-0.44
		c0.08,0.15,0.23,0.18,0.38,0.23c1.45,0.57,2.89,1.15,4.33,1.73c2.14,0.86,4.27,1.72,6.41,2.58c0.14,0.06,0.3,0.18,0.42,0.04
		c0.14-0.17-0.01-0.3-0.13-0.44c-0.18-0.22-0.45-0.37-0.56-0.65c0.53,0.25,0.9,0.68,1.2,1.17c-0.1,0.92,0.35,1.72,0.58,2.56
		c0.48,1.76,1.09,3.48,1.51,5.26c0.06,0.27,0.18,0.41,0.47,0.38c0.3-0.04,0.61-0.08,0.91-0.11c-0.08,0.38-0.39,0.21-0.61,0.23
		c-0.38,0.04-0.82-0.11-0.99,0.42c-0.01,0.04-0.17,0.03-0.27,0.04c0.27-0.15,0.24-0.23-0.04-0.35c-1.47-0.62-2.94-1.25-4.41-1.88
		c-1.59-0.68-3.19-1.36-4.77-2.06c-0.44-0.2-0.75-0.17-1.16,0.1c-6.48,4.36-12.96,8.71-19.45,13.05c-0.45,0.3-0.91,0.58-1.36,0.87
		c0.02-0.18-0.17-0.22-0.23-0.34c3.88-2.57,7.76-5.14,11.64-7.71c3.02-2,6.03-4.01,9.05-6.02c0.14-0.1,0.28-0.2,0.38-0.39
		c-0.71,0.27-1.42,0.54-2.13,0.82c-4.93,1.94-9.86,3.89-14.78,5.83c-0.2,0.08-0.38,0.19-0.53,0.34c-0.07-0.22,0.07-0.41,0.09-0.62
		c0.16,0.09,0.3-0.02,0.43-0.07c5.13-2.02,10.27-4.05,15.4-6.08c0.12-0.05,0.28-0.06,0.34-0.26c-2.44,0.08-4.84,0.16-7.25,0.24
		c-0.38-0.13-0.76-0.2-1.14,0.03c-0.5,0.11-1.01,0.09-1.52,0.09c0.23-0.22,0.57,0.01,0.87-0.2c-1.58,0-3.09,0-4.61,0
		c-0.08,0-0.17-0.01-0.22,0.03c-0.26,0.19-0.46,0.19-0.53-0.17c-0.07-0.38,0.21-0.33,0.44-0.33c-0.15,0.5,0.22,0.37,0.46,0.36
		c4.02-0.12,8.05-0.24,12.07-0.38c0.55-0.02,1.12,0.08,1.72-0.13c-0.19-0.11-0.33-0.2-0.48-0.27c-1.82-0.79-3.64-1.56-5.45-2.37
		c-1.19-0.53-2.42-0.98-3.56-1.62C681.53,334.92,681.53,334.85,681.53,334.77z M689.78,331.97c-0.04-0.09-0.1-0.14-0.2-0.15
		c-0.01,0-0.03,0.03-0.03,0.04c0.01,0.12,0.1,0.13,0.19,0.15c0.05,0.35,0.34,0.55,0.54,0.79c1.39,1.64,2.84,3.22,4.21,4.88
		c1.07,1.3,2.2,2.54,3.32,3.83c0.14-0.2,0.23-0.38,0.3-0.58c0.49-1.48,0.98-2.95,1.5-4.42c0.13-0.35,0.05-0.45-0.27-0.58
		c-2.22-0.92-4.42-1.87-6.63-2.8C691.74,332.72,690.8,332.25,689.78,331.97z M700.14,336.2c-0.63,1.84-1.21,3.53-1.79,5.22
		c-0.08,0.25-0.03,0.43,0.25,0.55c0.39,0.16,0.76,0.37,1.14,0.56c0.84,0.4,1.69,0.8,2.68,1.28
		C701.64,341.22,700.91,338.78,700.14,336.2z"/>
	<path class="st2" d="M683.5,339.97c2.41-0.08,4.81-0.16,7.25-0.24c-0.06,0.2-0.22,0.21-0.34,0.26c-5.13,2.03-10.27,4.05-15.4,6.08
		c-0.14,0.05-0.27,0.16-0.43,0.07c0.59-1.74,1.19-3.49,1.75-5.24c0.16-0.48,0.36-0.77,0.93-0.68c0.3,0.05,0.61-0.02,0.92-0.03
		c0.43,0.02,0.86,0.03,1.28-0.09c0.46-0.01,0.92-0.02,1.38-0.03c0.51,0.01,1.02,0.03,1.52-0.09
		C682.74,339.99,683.12,339.98,683.5,339.97z"/>
	<path class="st2" d="M681.53,335c1.14,0.64,2.37,1.09,3.56,1.62c1.81,0.81,3.63,1.58,5.45,2.37c0.15,0.07,0.29,0.16,0.48,0.27
		c-0.6,0.21-1.17,0.11-1.72,0.13c-4.02,0.13-8.05,0.26-12.07,0.38c-0.24,0.01-0.61,0.14-0.46-0.36c1.3-1.34,2.6-2.68,3.89-4.03
		C680.91,335.13,681.11,334.83,681.53,335z"/>
	<path class="st0" d="M670.01,355.86c0.3,1.86,0.59,3.73,0.9,5.59c0.75,4.47,1.51,8.93,2.26,13.4c0.75,4.47,1.51,8.93,2.26,13.4
		c0.8,4.77,1.59,9.54,2.39,14.32c0.63,3.76,1.28,7.52,1.92,11.28c0.03,0.15,0.02,0.31,0.03,0.46c-0.11,0.04-0.22,0.08-0.33,0.12
		c-0.36-1.56-0.55-3.15-0.82-4.73c-0.73-4.34-1.45-8.67-2.17-13.01c-0.75-4.55-1.49-9.1-2.24-13.65c-0.78-4.76-1.57-9.51-2.36-14.27
		c-0.65-3.92-1.29-7.84-1.94-11.76c-0.04-0.21,0.09-0.57-0.34-0.56C669.57,356.14,669.92,356.1,670.01,355.86z"/>
	<path class="st2" d="M699.47,334.55c0.11,0.28,0.38,0.43,0.56,0.65c0.11,0.14,0.27,0.27,0.13,0.44c-0.12,0.15-0.28,0.02-0.42-0.04
		c-2.14-0.86-4.27-1.72-6.41-2.58c-1.44-0.58-2.89-1.15-4.33-1.73c-0.14-0.06-0.3-0.08-0.38-0.23c2.36,0,4.71,0,7.07-0.02
		c0.37,0,0.6,0.16,0.84,0.41C697.49,332.5,698.49,333.52,699.47,334.55z"/>
	<path class="st3" d="M671.56,354.97c0.36,0.03,0.72,0.04,1.06,0.19c-0.18,0.05-0.45-0.08-0.49,0.26c-0.37,0.02-0.72-0.04-1.08-0.11
		c-0.39-0.07-0.68-0.05-0.38,0.46c0.04,0.06,0.04,0.14,0.05,0.22c-0.3,0.04-0.19,0.27-0.22,0.45c-0.13-0.16-0.24-0.34-0.25-0.56
		c0.08-0.02,0.19-0.02,0.18-0.15c0-0.01-0.02-0.04-0.04-0.04c-0.13-0.01-0.12,0.1-0.14,0.18c-0.08-0.01-0.16-0.03-0.24-0.04
		c-0.08-0.56,0.18-0.76,0.72-0.67c0.22,0.03,0.45,0,0.68,0.06C671.76,355.3,671.61,355.1,671.56,354.97z"/>
	<path class="st3" d="M679.45,340.11c-0.42,0.12-0.85,0.1-1.28,0.09C678.59,340,679.02,340.13,679.45,340.11z"/>
	<path class="st3" d="M680.03,415.81c0.1,0.14,0.12,0.3,0.09,0.47c-0.11-0.06-0.23-0.17-0.34,0.01c-0.09-0.11-0.11-0.23-0.08-0.36
		C679.82,415.93,679.95,415.94,680.03,415.81z"/>
	<path class="st3" d="M700.43,334.77c0.23,0.02,0.37,0.13,0.44,0.45C700.63,335.08,700.46,335,700.43,334.77L700.43,334.77z"/>
	<path class="st3" d="M700.43,334.77c-0.16-0.01-0.23-0.1-0.22-0.26c0.01-0.14,0.1-0.19,0.22-0.2l0,0
		C700.43,334.46,700.43,334.61,700.43,334.77C700.43,334.77,700.43,334.77,700.43,334.77z"/>
	<path class="st3" d="M700.43,334.3c0.01-0.07,0.01-0.16,0.11-0.17c0.02,0,0.07,0.04,0.06,0.06
		C700.59,334.29,700.5,334.29,700.43,334.3C700.43,334.3,700.43,334.3,700.43,334.3z"/>
	<path class="st3" d="M671.08,354.25c0,0.09,0.07,0.11,0.13,0.13c-0.07,0.08-0.17,0.14-0.24,0.06
		C670.88,354.34,671,354.29,671.08,354.25z"/>
	<path class="st4" d="M680.03,415.81c-0.07,0.13-0.2,0.12-0.32,0.12c-0.01-0.08-0.01-0.17-0.02-0.25c0-0.11,0.02-0.23-0.07-0.32
		c-0.02-0.15-0.04-0.31-0.07-0.46c0.02-0.13,0.03-0.26-0.08-0.36c0-0.04-0.01-0.08-0.01-0.12c0.11-0.04,0.22-0.08,0.33-0.12
		c0.02,0.03,0.03,0.07,0.01,0.1c-0.02,0.13-0.03,0.26,0.08,0.36c0.01,0.12,0.02,0.23,0.03,0.35c-0.01,0.13-0.03,0.25,0.09,0.35
		C680,415.58,680.01,415.7,680.03,415.81z"/>
	<path class="st3" d="M679.47,414.54c0.11,0.1,0.1,0.23,0.08,0.36C679.45,414.8,679.45,414.67,679.47,414.54z"/>
	<path class="st3" d="M679.62,415.36c0.09,0.09,0.07,0.21,0.07,0.32C679.66,415.58,679.64,415.47,679.62,415.36z"/>
	<path class="st3" d="M679.88,414.77c-0.11-0.1-0.1-0.23-0.08-0.36C679.88,414.52,679.89,414.64,679.88,414.77z"/>
	<path class="st3" d="M679.99,415.47c-0.12-0.09-0.1-0.22-0.09-0.35C679.98,415.22,680.01,415.34,679.99,415.47z"/>
	<path class="st2" d="M689.78,331.97c1.02,0.29,1.96,0.76,2.93,1.16c2.21,0.93,4.42,1.88,6.63,2.8c0.32,0.13,0.4,0.23,0.27,0.58
		c-0.52,1.47-1.02,2.94-1.5,4.42c-0.07,0.21-0.16,0.38-0.3,0.58c-1.12-1.29-2.25-2.54-3.32-3.83c-1.37-1.66-2.82-3.24-4.21-4.88
		c-0.21-0.24-0.49-0.44-0.54-0.79L689.78,331.97z"/>
	<path class="st2" d="M700.14,336.2c0.77,2.58,1.5,5.02,2.28,7.6c-0.99-0.47-1.84-0.87-2.68-1.28c-0.38-0.18-0.75-0.4-1.14-0.56
		c-0.28-0.12-0.33-0.3-0.25-0.55C698.92,339.73,699.51,338.04,700.14,336.2z"/>
	<path class="st4" d="M683.5,339.97c-0.38,0.01-0.76,0.02-1.14,0.03C682.73,339.77,683.11,339.84,683.5,339.97z"/>
	<path class="st5" d="M689.74,332.01c-0.09-0.02-0.18-0.03-0.19-0.15c0-0.01,0.02-0.04,0.03-0.04c0.1,0,0.16,0.06,0.2,0.15
		C689.78,331.97,689.74,332.01,689.74,332.01z"/>
	<path class="st4" d="M670.27,355.88c0.02-0.08,0.01-0.19,0.14-0.18c0.01,0,0.04,0.02,0.04,0.04
		C670.46,355.86,670.36,355.86,670.27,355.88C670.27,355.88,670.27,355.88,670.27,355.88z"/>
</g>
</svg>
