<?xml version="1.0" encoding="utf-8"?>
<!-- Generator: Adobe Illustrator 23.1.0, SVG Export Plug-In . SVG Version: 6.00 Build 0)  -->
<svg version="1.1" xmlns="http://www.w3.org/2000/svg" xmlns:xlink="http://www.w3.org/1999/xlink" x="0px" y="0px"
	 viewBox="0 0 1366 768" style="enable-background:new 0 0 1366 768;" xml:space="preserve">
<style type="text/css">
	.st0{fill:#E50000;}
</style>
<g id="Layer_1">
	<g>
		<path class="st0" d="M765.2,334.65c0,33.06,0,66.11,0,99.17c-0.19,0.13-0.14,0.33-0.16,0.51c-1.44,12.36-7.53,21.7-18.31,27.89
			c-5.11,2.94-10.66,4.37-16.63,4.36c-32.35-0.05-64.7-0.02-97.05-0.02c-0.65,0-1.29-0.02-1.93-0.12
			c-13.75-2.09-23.36-9.55-28.83-22.31c-1.23-2.87-2.18-5.89-2.19-9.03c-0.04-34.12-0.02-68.25-0.02-102.37
			c0-0.32-0.01-0.65,0.04-0.96c2.54-14.28,10.64-23.9,24.26-28.86c1.9-0.69,3.89-1.01,5.85-1.46c34.83,0,69.66,0,104.49,0
			c0.18,0.05,0.35,0.13,0.53,0.16c14.15,2.3,25.71,13.09,28.99,27.04C764.71,330.61,764.91,332.63,765.2,334.65z M647.81,354.96
			L647.81,354.96c-0.05-0.1-0.1-0.21-0.15-0.32l-0.01-0.01c-0.05-0.13-0.1-0.26-0.15-0.38c-0.5-0.73-0.77-1.58-1.14-2.38
			c-0.2-0.45-0.48-0.62-0.98-0.62c-2.47,0.04-4.94,0.02-7.41,0.04c-2.71,0.03-5.42,0.07-8.14,0.11c-0.39,0.01-0.73,0.08-0.93,0.48
			c-0.2,0.41-0.03,0.71,0.23,1.01c0.19,0.22,0.37,0.46,0.28,0.79c-1.71,0.36-2.69,1.39-3.05,3.11c-0.26,1.23,0.04,2.35,0.5,3.44
			c2.16,5.03,4.63,9.91,6.85,14.9c0.91,2.04,2.18,3.96,2.46,6.25c-0.83,0.01-1.66,0.03-2.49,0.03c-3.06,0-6.11,0.02-9.17-0.02
			c-0.72-0.01-0.95,0.22-0.89,0.92c0.05,0.61-0.01,1.23-0.02,1.85c-0.27,0.04-0.5,0.18-0.73,0.32c-1.56,0.98-1.92,2.56-1.96,4.19
			c-0.08,3.44-0.07,6.88-0.01,10.32c0.05,2.76,1.28,4.31,3.66,4.77c0.71,0.14,1.43,0.24,2.16,0.22c1.56-0.03,3.11-0.1,4.66-0.13
			c4.22-0.09,8.44-0.05,12.65-0.03c1.42,0.01,2.67,0.41,3.66,1.54c0.78,0.89,1.29,1.91,1.78,2.95c1.32,2.82,2.63,5.65,3.93,8.48
			c1.82,3.95,3.63,7.9,5.46,11.85c0.62,1.34,1.32,2.64,2.23,3.81c1.28,1.65,3.69,1.8,5.2,0.37c0.94-0.89,1.56-1.98,2.09-3.13
			c1.64-3.62,3.26-7.24,4.89-10.87c1.42-3.16,2.83-6.32,4.27-9.47c1-2.17,1.82-4.43,3.01-6.5c0.9-1.56,2.41-2.25,3.67-0.27
			c0.13,0.2,0.25,0.41,0.36,0.63c1.3,2.65,2.6,5.3,3.9,7.95c3.09,6.29,6.18,12.59,9.28,18.87c0.42,0.85,0.96,1.61,1.66,2.26
			c1.48,1.38,3.89,1.34,5.33-0.05c0.69-0.66,1.24-1.41,1.64-2.27c1.97-4.23,3.97-8.46,5.93-12.7c1.37-2.95,2.79-5.87,4.02-8.88
			c1.31-3.21,3.5-4.59,6.99-4.47c4.99,0.17,9.99,0.06,14.99,0.04c3.39-0.01,5.38-1.64,5.56-4.65c0.23-3.78,0.39-7.56,0.34-11.34
			c-0.02-1.4-0.37-2.77-1.62-3.5c-0.81-0.47-1.04-1.04-1.1-1.83c0.28-1.25,0.16-1.4-1.09-1.4c-3.29-0.01-6.58-0.02-9.87-0.03
			c-0.73-0.14-0.77-0.63-0.62-1.22c0.14-0.55,0.42-1.04,0.66-1.55c1.78-3.85,3.56-7.69,5.31-11.55c1.17-2.59,2.52-5.11,3.47-7.79
			c0.79-2.24,0.59-4.64-2.14-5.67c-0.31-0.12-0.49-0.31-0.56-0.63l0.01-0.05c0.05-0.08,0.09-0.17,0.14-0.25
			c-0.02-0.03-0.01-0.05,0.02-0.07c0.05-0.09,0.09-0.18,0.14-0.26c-0.05-0.38,0.66-1.06-0.39-1.07c-5.61-0.06-11.21-0.11-16.82-0.17
			c-0.34,0-0.54,0.09-0.69,0.4c-0.42,0.88-0.87,1.74-1.31,2.6c-0.07,0.13-0.13,0.25-0.2,0.38c-0.04,0.05-0.08,0.1-0.12,0.15
			c-0.34,0.04-0.59,0.21-0.78,0.5c-0.45,0.7-0.95,1.36-1.3,2.12c-1.95,4.24-3.91,8.47-5.86,12.71c-1.71,3.73-3.4,7.46-5.13,11.18
			c-0.51,1.09-0.92,2.23-1.72,3.17c-0.82,0.96-1.76,1.04-2.56,0.06c-0.44-0.54-0.77-1.16-1.15-1.74c-0.54-0.82-0.99-1.73-1.94-2.2
			c-0.5-0.96-1-1.93-1.51-2.89c-0.27-0.5-0.52-0.66-0.83,0c-0.22,0.48-0.51,0.92-0.77,1.38c-0.05,0.09-0.09,0.17-0.14,0.26
			l-0.02,0.06c-0.04,0.08-0.09,0.16-0.13,0.24c0.01,0.04,0,0.07-0.03,0.09c-0.04,0.07-0.08,0.14-0.11,0.22
			c0,0.03-0.01,0.06-0.04,0.07c-0.96,0.36-1.54-0.44-1.4-1.35c0.13-0.82,0.27-1.65,0.61-2.41c1.83-4.09,3.67-8.17,5.48-12.27
			c0.76-1.72,1.72-3.36,2.14-5.2c0.49-2.17-0.17-3.88-2.27-4.6c-0.24-0.08-0.45-0.17-0.51-0.45c0.04-0.5,0.34-0.89,0.53-1.33
			c0.23-0.54,0.24-0.85-0.5-0.85c-5.58,0.01-11.16,0.01-16.74,0c-0.38,0-0.56,0.13-0.72,0.47c-0.47,1.03-0.98,2.04-1.47,3.06
			c-0.04,0.12-0.09,0.24-0.13,0.36l0.01-0.01c-0.81,0.25-1.12,0.97-1.46,1.63c-1.18,2.3-2.11,4.7-3.14,7.06
			c-2.13,4.87-4.24,9.75-6.38,14.61c-0.79,1.79-1.41,3.67-2.52,5.3c-0.82,1.21-2.12,1.24-3.01,0.09c-0.5-0.64-0.82-1.38-1.16-2.12
			c-1.58-3.47-3.16-6.94-4.73-10.41c-1.49-3.28-2.95-6.56-4.46-9.83c-0.84-1.83-1.54-3.73-2.68-5.4c-0.24-0.35-0.45-0.74-0.95-0.79
			l0.01,0.01C647.96,355.17,647.96,355.03,647.81,354.96z"/>
		<path class="st0" d="M708.21,414.21c2.73-5.92,5.47-11.83,8.18-17.75c0.23-0.5,0.48-0.64,1.01-0.64
			c7.39,0.02,14.78,0.01,22.16,0.01c1.55,0,1.87-0.28,1.83-1.89c-0.04-1.48-0.04-2.95,0.03-4.43c0.11-2.44,0.2-4.88,0.29-7.33
			c0-0.05-0.03-0.1-0.04-0.15c-0.04,0.02-0.11,0.04-0.11,0.06c0,0.05,0.03,0.1,0.04,0.15c0.06,0.8,0.29,1.36,1.1,1.84
			c1.25,0.73,1.6,2.11,1.62,3.5c0.05,3.78-0.11,7.57-0.34,11.34c-0.18,3.01-2.17,4.64-5.56,4.65c-5,0.02-10,0.13-14.99-0.04
			c-3.49-0.12-5.69,1.26-6.99,4.47c-1.22,3.01-2.65,5.93-4.02,8.88c-1.96,4.24-3.96,8.46-5.93,12.7c-0.4,0.86-0.95,1.61-1.64,2.27
			c-1.45,1.4-3.85,1.43-5.33,0.05c-0.7-0.65-1.24-1.41-1.66-2.26c-3.1-6.29-6.19-12.58-9.28-18.87c-1.3-2.65-2.6-5.3-3.9-7.95
			c-0.11-0.22-0.23-0.42-0.36-0.63c-1.26-1.98-2.76-1.29-3.67,0.27c-1.2,2.07-2.02,4.33-3.01,6.5c-1.44,3.15-2.85,6.31-4.27,9.47
			c-1.63,3.62-3.25,7.25-4.89,10.87c-0.52,1.15-1.15,2.24-2.09,3.13c-1.51,1.43-3.92,1.28-5.2-0.37c-0.91-1.17-1.61-2.47-2.23-3.81
			c-1.83-3.95-3.64-7.9-5.46-11.85c-1.3-2.83-2.61-5.66-3.93-8.48c-0.49-1.04-1-2.06-1.78-2.95c-0.99-1.13-2.25-1.53-3.66-1.54
			c-4.22-0.02-8.44-0.06-12.65,0.03c-1.55,0.03-3.11,0.1-4.66,0.13c-0.73,0.02-1.45-0.08-2.16-0.22c-2.38-0.46-3.61-2-3.66-4.77
			c-0.06-3.44-0.07-6.88,0.01-10.32c0.04-1.63,0.4-3.22,1.96-4.19c0.23-0.14,0.45-0.29,0.73-0.32c0.01,3.71,0.04,7.41,0.01,11.12
			c-0.01,0.81,0.26,0.99,1.01,0.96c7.87-0.24,15.74-0.11,23.61-0.25c0.73-0.01,1.07,0.21,1.38,0.87
			c4.45,9.68,8.93,19.34,13.39,29.01c0.26,0.55,0.72,0.58,1.18,0.66c0.5,0.09,0.53-0.37,0.66-0.66c3.25-7.17,6.5-14.34,9.73-21.53
			c3.99-8.89,7.96-17.8,11.95-26.69c3.05-6.8,6.11-13.59,9.18-20.38c0.58-1.29,1.19-2.57,1.79-3.86c0.05,0.28,0.26,0.37,0.51,0.45
			c2.1,0.72,2.76,2.43,2.27,4.6c-0.42,1.84-1.38,3.49-2.14,5.2c-1.81,4.1-3.65,8.18-5.48,12.27c-0.34,0.77-0.48,1.59-0.61,2.41
			c-0.14,0.9,0.44,1.71,1.4,1.35c-1.54,2.77-2.89,5.65-4.43,8.43c-1.02,1.85-1.98,3.74-2.93,5.64c-0.21,0.42-0.06,0.77,0.12,1.14
			c2.35,4.8,4.69,9.59,7.03,14.4c2.62,5.38,5.24,10.77,7.87,16.15"/>
		<path class="st0" d="M730.65,380.8c-2.3,0-4.6,0-7.02,0c0.41-0.91,0.78-1.75,1.17-2.59c3.88-8.4,7.75-16.79,11.63-25.19
			c0.1-0.22,0.22-0.43,0.33-0.64c0.07,0.32,0.25,0.51,0.56,0.63c2.73,1.04,2.93,3.43,2.14,5.67c-0.95,2.68-2.29,5.2-3.47,7.79
			c-1.75,3.86-3.53,7.71-5.31,11.55c-0.24,0.51-0.52,1-0.66,1.55C729.88,380.18,729.92,380.67,730.65,380.8z"/>
		<path class="st0" d="M629.5,353.26c4.57,9.09,8.6,18.43,13.01,27.71c-2.18,0-4.21,0-6.25,0c-0.28-2.3-1.55-4.21-2.46-6.25
			c-2.23-4.99-4.69-9.88-6.85-14.9c-0.47-1.09-0.76-2.21-0.5-3.44C626.81,354.65,627.79,353.62,629.5,353.26z"/>
		<path class="st0" d="M678.55,354.71c-0.86,2.53-2.05,4.93-3.1,7.38c-3.73,8.64-7.49,17.26-11.24,25.88
			c-0.17,0.39-0.35,0.77-0.59,1.28c-0.7-1.53-1.36-2.94-1.99-4.38c-1.56-3.57-3.17-7.13-4.8-10.67c-2.92-6.33-5.78-12.69-8.66-19.03
			c-0.04-0.1-0.07-0.2-0.1-0.3c0.5,0.04,0.71,0.43,0.95,0.79c1.14,1.68,1.84,3.58,2.68,5.4c1.51,3.27,2.97,6.55,4.46,9.83
			c1.57,3.47,3.15,6.94,4.73,10.41c0.33,0.73,0.66,1.47,1.16,2.12c0.89,1.15,2.19,1.12,3.01-0.09c1.11-1.64,1.73-3.51,2.52-5.3
			c2.14-4.87,4.26-9.74,6.38-14.61c1.03-2.36,1.96-4.77,3.14-7.06C677.44,355.68,677.75,354.96,678.55,354.71z"/>
		<path class="st0" d="M717.55,354.05c-0.79,2.4-1.96,4.64-3,6.93c-4.03,8.8-8.07,17.59-12.11,26.38c-0.31,0.67-0.66,1.32-1.05,2.11
			c-0.64-1.35-1.22-2.57-1.79-3.8c-0.88-1.91-1.74-3.84-2.48-5.81c0.95,0.46,1.4,1.37,1.94,2.2c0.38,0.58,0.71,1.21,1.15,1.74
			c0.8,0.98,1.74,0.9,2.56-0.06c0.8-0.94,1.21-2.08,1.72-3.17c1.73-3.72,3.42-7.46,5.13-11.18c1.95-4.24,3.91-8.47,5.86-12.71
			c0.35-0.76,0.85-1.42,1.3-2.12C716.96,354.26,717.21,354.09,717.55,354.05z"/>
		<path class="st0" d="M717.87,353.52c-0.01,0.16,0.08,0.37-0.2,0.38C717.74,353.78,717.81,353.65,717.87,353.52z"/>
		<path class="st0" d="M647.74,354.21c-0.05-0.13-0.1-0.26-0.15-0.38C647.64,353.95,647.69,354.08,647.74,354.21z"/>
		<path class="st0" d="M647.91,354.55c-0.05-0.11-0.11-0.22-0.16-0.33C647.8,354.33,647.86,354.44,647.91,354.55z"/>
		<path class="st0" d="M678.68,354.37c0.01,0.14,0.05,0.29-0.13,0.36C678.59,354.6,678.63,354.48,678.68,354.37z"/>
		<path class="st0" d="M648.07,354.88c-0.05-0.11-0.11-0.22-0.16-0.34C648.05,354.61,648.05,354.75,648.07,354.88z"/>
		<path class="st0" d="M736.94,352.02c0.05-0.09,0.09-0.18,0.14-0.26C737.03,351.84,736.99,351.93,736.94,352.02z"/>
		<path class="st0" d="M736.78,352.34c0.05-0.08,0.09-0.17,0.14-0.25C736.87,352.17,736.82,352.25,736.78,352.34z"/>
		<path class="st0" d="M694,378.35c-0.05,0.09-0.09,0.18-0.14,0.26C693.91,378.53,693.96,378.44,694,378.35z"/>
		<path class="st0" d="M693.84,378.68c-0.04,0.08-0.09,0.16-0.13,0.25C693.75,378.84,693.8,378.76,693.84,378.68z"/>
		<path class="st0" d="M693.67,379.01c-0.04,0.07-0.08,0.15-0.11,0.22C693.6,379.15,693.64,379.08,693.67,379.01z"/>
	</g>
	<rect x="620.86" y="335" class="st0" width="130.14" height="103"/>
</g>
<g id="Layer_2">
</g>
</svg>
